<?xml version="1.0" encoding="UTF-8"?>
<!-- Kampf-Token Kavalier (men_cavalier), Stufe 6.
     Generiert von tools/gen_unit_sprites.py - nicht per Hand editieren,
     sondern den Generator anpassen und neu laufen lassen. -->
<svg xmlns="http://www.w3.org/2000/svg" viewBox="0 0 128 128" width="128" height="128">
  <ellipse cx="64.0" cy="117.0" rx="36.4" ry="7" fill="#000" opacity="0.42"/>
  <g transform="translate(64.0,114.0) scale(0.98) translate(-64.0,-114.0)">
  <polygon points="39.6,86.0 50.4,86.0 47.8,100.0 45.7,107.0 40.3,107.0 39.9,100.0" fill="#968637" stroke="#27230e" stroke-width="2.2" stroke-linejoin="round"/>
  <polygon points="39.6,106.0 46.4,106.0 47.1,114.0 38.9,114.0" fill="#6f6429" stroke="#27230e" stroke-width="2.0" stroke-linejoin="round"/>
  <polygon points="75.6,86.0 86.4,86.0 85.8,100.0 85.7,107.0 80.3,107.0 77.9,100.0" fill="#968637" stroke="#27230e" stroke-width="2.2" stroke-linejoin="round"/>
  <polygon points="79.6,106.0 86.4,106.0 87.1,114.0 78.9,114.0" fill="#6f6429" stroke="#27230e" stroke-width="2.0" stroke-linejoin="round"/>
  <polygon points="35.0,88.0 47.0,88.0 46.2,101.0 46.0,107.0 40.0,107.0 37.4,101.0" fill="#c7b249" stroke="#27230e" stroke-width="2.2" stroke-linejoin="round"/>
  <polygon points="39.2,106.0 46.8,106.0 47.6,114.0 38.4,114.0" fill="#6f6429" stroke="#27230e" stroke-width="2.0" stroke-linejoin="round"/>
  <polygon points="79.0,88.0 91.0,88.0 88.2,101.0 86.0,107.0 80.0,107.0 79.4,101.0" fill="#c7b249" stroke="#27230e" stroke-width="2.2" stroke-linejoin="round"/>
  <polygon points="79.2,106.0 86.8,106.0 87.6,114.0 78.4,114.0" fill="#6f6429" stroke="#27230e" stroke-width="2.0" stroke-linejoin="round"/>
  <path d="M 29.0 68.0 q -14.0 14 -12.0 26" fill="none" stroke="#dac350" stroke-width="7.0" stroke-linecap="round" stroke-linejoin="round"/>
  <path d="M 26.0 77.0 Q 24.0 70.0 40.0 66.4 L 68.0 64.0 Q 85.0 64.0 87.0 75.7 Q 88.0 88.0 70.0 90.0 L 42.0 90.0 Q 25.0 89.0 26.0 77.0 Z" fill="#c7b249" stroke="#27230e" stroke-width="2.5" stroke-linejoin="round" stroke-linecap="round"/>
  <ellipse cx="41.0" cy="78.0" rx="13.0" ry="10.9" fill="#968637"/>
  <ellipse cx="69.0" cy="77.0" rx="12.0" ry="10.4" fill="#f7e692"/>
  <polygon points="67.5,68.0 84.5,70.0 102.5,42.0 89.5,38.0" fill="#c7b249" stroke="#27230e" stroke-width="2.2" stroke-linejoin="round"/>
  <polygon points="50.0,60.0 62.0,60.0 60.0,84.0 52.0,84.0" fill="#6f6429" stroke="#27230e" stroke-width="2.0" stroke-linejoin="round"/>
  <polygon points="44.0,34.0 66.0,36.0 63.0,62.0 48.0,62.0" fill="#dac350" stroke="#27230e" stroke-width="2.5" stroke-linejoin="round"/>
  <path d="M 62.0 44 L 80.0 52" fill="none" stroke="#dac350" stroke-width="7.0" stroke-linecap="round" stroke-linejoin="round"/>
  <ellipse cx="96.0" cy="38.0" rx="10.2" ry="10.8" fill="#f7e692" stroke="#27230e" stroke-width="2.5"/>
  <ellipse cx="92.2" cy="36.8" rx="1.7" ry="1.9" fill="#27230e"/>
  <ellipse cx="99.8" cy="36.8" rx="1.7" ry="1.9" fill="#27230e"/>
  <polygon points="40.0,30.5 42.6,18.8 53.0,4.5 63.4,18.8 66.0,30.5" fill="#c8d2dc" stroke="#27230e" stroke-width="2.5" stroke-linejoin="round"/>
  <path d="M 45.2 25.3 L 60.8 25.3" fill="none" stroke="#27230e" stroke-width="3.0" stroke-linecap="round" stroke-linejoin="round"/>
  <path d="M 100 34 L 34 66" fill="none" stroke="#7a5a34" stroke-width="6.0" stroke-linecap="round" stroke-linejoin="round"/>
  <polygon points="104.0,30.0 110.0,42.0 96.0,41.0" fill="#c8d2dc" stroke="#27230e" stroke-width="2.0" stroke-linejoin="round"/>
  </g>
  <circle cx="41.5" cy="122.0" r="2.6" fill="#f7e692" opacity="0.75"/>
  <circle cx="50.5" cy="122.0" r="2.6" fill="#f7e692" opacity="0.75"/>
  <circle cx="59.5" cy="122.0" r="2.6" fill="#f7e692" opacity="0.75"/>
  <circle cx="68.5" cy="122.0" r="2.6" fill="#f7e692" opacity="0.75"/>
  <circle cx="77.5" cy="122.0" r="2.6" fill="#f7e692" opacity="0.75"/>
  <circle cx="86.5" cy="122.0" r="2.6" fill="#f7e692" opacity="0.75"/>
</svg>
