<?xml version="1.0" encoding="UTF-8"?>
<!-- Kampf-Vordergrund swamp (unter dem Gitter)
     Erzeugt von tools/gen_battle_art.py. -->
<svg xmlns="http://www.w3.org/2000/svg" viewBox="0 0 540 130" width="540" height="130">
  <defs><linearGradient id="fg" x1="0" y1="0" x2="0" y2="1"><stop offset="0" stop-color="#333b29"/><stop offset="1" stop-color="#20261a"/></linearGradient></defs>
  <rect width="540" height="130" fill="url(#fg)"/>
  <rect x="0" y="0" width="540" height="6" fill="#20261a" opacity="0.6"/>
  <ellipse cx="516" cy="105" rx="32" ry="26" fill="#20261a"/>
  <ellipse cx="335" cy="106" rx="29" ry="23" fill="#20261a"/>
  <ellipse cx="387" cy="105" rx="35" ry="28" fill="#20261a"/>
  <ellipse cx="380" cy="103" rx="42" ry="33" fill="#20261a"/>
  <ellipse cx="517" cy="107" rx="23" ry="18" fill="#20261a"/>
  <ellipse cx="41" cy="104" rx="38" ry="30" fill="#20261a"/>
  <ellipse cx="86" cy="107" rx="25" ry="20" fill="#20261a"/>
  <ellipse cx="209" cy="107" rx="24" ry="19" fill="#20261a"/>
  <ellipse cx="483" cy="106" rx="29" ry="23" fill="#20261a"/>
  <ellipse cx="294" cy="107" rx="23" ry="18" fill="#20261a"/>
  <ellipse cx="281" cy="104" rx="41" ry="33" fill="#20261a"/>
  <g stroke="#333b29" stroke-width="3" stroke-linecap="round">
    <line x1="71" y1="94" x2="70" y2="72"/>
    <line x1="76" y1="94" x2="81" y2="73"/>
    <line x1="81" y1="94" x2="83" y2="75"/>
  </g>
  <g stroke="#333b29" stroke-width="3" stroke-linecap="round">
    <line x1="50" y1="94" x2="52" y2="70"/>
    <line x1="55" y1="94" x2="56" y2="72"/>
    <line x1="60" y1="94" x2="62" y2="71"/>
  </g>
  <g stroke="#333b29" stroke-width="3" stroke-linecap="round">
    <line x1="144" y1="94" x2="148" y2="75"/>
    <line x1="149" y1="94" x2="154" y2="75"/>
    <line x1="154" y1="94" x2="157" y2="71"/>
  </g>
  <g stroke="#333b29" stroke-width="3" stroke-linecap="round">
    <line x1="476" y1="94" x2="477" y2="64"/>
    <line x1="481" y1="94" x2="485" y2="76"/>
    <line x1="486" y1="94" x2="481" y2="77"/>
  </g>
  <g stroke="#333b29" stroke-width="3" stroke-linecap="round">
    <line x1="513" y1="94" x2="515" y2="66"/>
    <line x1="518" y1="94" x2="516" y2="78"/>
    <line x1="523" y1="94" x2="519" y2="68"/>
  </g>
  <g stroke="#333b29" stroke-width="3" stroke-linecap="round">
    <line x1="538" y1="94" x2="534" y2="77"/>
    <line x1="543" y1="94" x2="542" y2="64"/>
    <line x1="548" y1="94" x2="548" y2="70"/>
  </g>
</svg>
